<?xml version="1.0" encoding="UTF-8" standalone="no"?>
<!-- Created with Inkscape (http://www.inkscape.org/) -->

<svg
   xmlns:dc="http://purl.org/dc/elements/1.1/"
   xmlns:cc="http://creativecommons.org/ns#"
   xmlns:rdf="http://www.w3.org/1999/02/22-rdf-syntax-ns#"
   xmlns:svg="http://www.w3.org/2000/svg"
   xmlns="http://www.w3.org/2000/svg"
   xmlns:sodipodi="http://sodipodi.sourceforge.net/DTD/sodipodi-0.dtd"
   xmlns:inkscape="http://www.inkscape.org/namespaces/inkscape"
   width="23.466667"
   height="23.466667"
   id="svg3869"
   version="1.1"
   inkscape:version="0.92.1 r15371"
   sodipodi:docname="key.svg">
  <defs
     id="defs3871" />
  <sodipodi:namedview
     id="base"
     pagecolor="#ffffff"
     bordercolor="#666666"
     borderopacity="1.0"
     inkscape:pageopacity="0.0"
     inkscape:pageshadow="2"
     inkscape:zoom="42.24931"
     inkscape:cx="3.172692"
     inkscape:cy="14.933863"
     inkscape:document-units="px"
     inkscape:current-layer="layer1"
     showgrid="false"
     fit-margin-top="0"
     fit-margin-left="0"
     fit-margin-right="0"
     fit-margin-bottom="0"
     inkscape:window-width="1916"
     inkscape:window-height="2020"
     inkscape:window-x="-11"
     inkscape:window-y="0"
     inkscape:window-maximized="0"
     inkscape:showpageshadow="false"
     showguides="false">
    <inkscape:grid
       type="xygrid"
       id="grid4132"
       originx="0"
       originy="0"
       spacingx="1.0666667"
       spacingy="1.0666667" />
    <sodipodi:guide
       position="2.1333333,21.333351"
       orientation="18,0"
       id="guide4138"
       inkscape:locked="false" />
    <sodipodi:guide
       position="2.1333333,2.1333519"
       orientation="0,18"
       id="guide4140"
       inkscape:locked="false" />
    <sodipodi:guide
       position="21.333333,2.1333519"
       orientation="-18,0"
       id="guide4142"
       inkscape:locked="false" />
    <sodipodi:guide
       position="21.333333,21.333351"
       orientation="0,-18"
       id="guide4144"
       inkscape:locked="false" />
    <sodipodi:guide
       position="3.2,20.266685"
       orientation="16,0"
       id="guide4146"
       inkscape:locked="false" />
    <sodipodi:guide
       position="3.2,3.2000186"
       orientation="0,16"
       id="guide4148"
       inkscape:locked="false" />
    <sodipodi:guide
       position="20.266667,3.2000186"
       orientation="-16,0"
       id="guide4150"
       inkscape:locked="false" />
    <sodipodi:guide
       position="20.266667,20.266685"
       orientation="0,-16"
       id="guide4152"
       inkscape:locked="false" />
  </sodipodi:namedview>
  <metadata
     id="metadata3874">
    <rdf:RDF>
      <cc:Work
         rdf:about="">
        <dc:format>image/svg+xml</dc:format>
        <dc:type
           rdf:resource="http://purl.org/dc/dcmitype/StillImage" />
        <dc:title />
      </cc:Work>
    </rdf:RDF>
  </metadata>
  <g
     inkscape:label="Capa 1"
     inkscape:groupmode="layer"
     id="layer1"
     transform="translate(-347.73333,-569.98635)">
    <path
       style="fill:#51dbcc;fill-opacity:1;stroke-width:1.06666672"
       d="m 362.38333,573.20926 c -3.0907,0 -5.59583,2.5036 -5.59583,5.59167 0,0.83934 0.18992,1.63176 0.52083,2.34583 l -0.95625,1.13334 -0.0833,1.0625 c -0.009,0.008 -1.04375,0.0396 -1.04375,0.0396 l -0.53125,0.38542 c 0,0 0.002,1.15932 -0.002,1.14375 l -1.13959,0.0188 -0.48125,0.55 -0.0104,1.03958 c 0,0 -0.98371,-0.0645 -1.08334,0.0271 l 0.002,0.002 c -0.62825,0.57868 -1.05208,0.99166 -1.05208,0.99166 l 0.004,2.71875 0.53333,-0.002 7.24584,-7.24583 c 0.48711,0.42438 1.05154,0.75854 1.66458,0.99583 0.62482,0.24313 1.29964,0.38542 2.01042,0.38542 3.09124,0 5.59583,-2.50512 5.59583,-5.59375 0,-3.08809 -2.50551,-5.59032 -5.59792,-5.58959 z m 1.06875,2.6625 c 1.03005,0 1.86459,0.8366 1.86459,1.86667 0,1.03006 -0.83454,1.86458 -1.86459,1.86458 -1.0306,0 -1.86666,-0.83452 -1.86666,-1.86458 0,-1.03007 0.83606,-1.86667 1.86666,-1.86667 z"
       id="path5"
       inkscape:connector-curvature="0" />
    <path
       style="opacity:0.5;fill:#eec852;fill-opacity:1;stroke-width:1.06666672"
       d="m 363.45208,575.87176 c -1.0306,0 -1.86666,0.8366 -1.86666,1.86667 0,1.03006 0.83606,1.86458 1.86666,1.86458 1.03005,0 1.86459,-0.83452 1.86459,-1.86458 0,-1.03007 -0.83454,-1.86667 -1.86459,-1.86667 z m 0,1.06667 c 0.44119,0 0.79792,0.35827 0.79792,0.8 0,0.44119 -0.35668,0.79792 -0.79792,0.79792 -0.44126,0 -0.8,-0.35673 -0.8,-0.79792 0,-0.44173 0.35874,-0.8 0.8,-0.8 z m -4.74166,6.07292 -7.25,7.25 h 2.66458 l 6.32917,-6.21667 c -0.64532,-0.23822 -1.23484,-0.58995 -1.74375,-1.03333 z"
       id="path7"
       inkscape:connector-curvature="0" />
    <path
       style="fill:#eecf52;fill-opacity:1;stroke:#000000;stroke-width:0.02366902;stroke-opacity:0.30147059"
       d="m 3.2092163,18.919956 -0.011156,-1.343217 0.2645396,-0.26036 C 3.608097,17.173182 3.8530734,16.938858 4.0069921,16.795661 l 0.2798523,-0.260359 0.5234148,-0.0028 0.5234148,-0.0028 0.00639,-0.515358 0.00639,-0.515358 0.206633,-0.235303 c 0.1136482,-0.129416 0.2194859,-0.251787 0.2351951,-0.271936 0.023788,-0.03051 0.1246609,-0.03908 0.6035601,-0.05126 l 0.574998,-0.01463 0.00633,-0.572275 0.00633,-0.572275 0.2556219,-0.187777 0.255622,-0.187778 0.5191216,-0.01744 c 0.2855171,-0.0096 0.5223567,-0.02051 0.5263106,-0.02427 0.00395,-0.0038 0.026434,-0.246125 0.049956,-0.538597 l 0.042768,-0.531769 0.4470932,-0.530146 c 0.2459013,-0.29158 0.4601924,-0.546931 0.4762023,-0.567447 0.023805,-0.0305 0.014555,-0.07181 -0.050773,-0.226709 C 8.9773446,9.7266763 8.9255367,8.3300785 9.3557617,7.0425652 9.7767849,5.7825889 10.633268,4.7181874 11.783483,4.0254938 c 0.633289,-0.3813851 1.394321,-0.646258 2.142047,-0.7455271 0.559578,-0.07429 1.354319,-0.042706 1.893522,0.075252 1.944185,0.4253161 3.504851,1.8205295 4.126839,3.6893357 0.218432,0.6562954 0.301925,1.2329775 0.280572,1.9378953 -0.02636,0.8703534 -0.214647,1.6066953 -0.608233,2.3786893 -0.783262,1.536318 -2.277191,2.643366 -3.976695,2.946855 -0.583738,0.104241 -1.314673,0.109691 -1.866815,0.01392 -0.959364,-0.166407 -1.888954,-0.577978 -2.615671,-1.158075 l -0.186557,-0.14892 -3.6241847,3.624127 -3.6241847,3.624127 H 3.4722473 3.2203719 Z M 16.173245,9.5627581 C 16.791057,9.4132783 17.278358,8.9620427 17.49437,8.3394112 17.555244,8.1639509 17.567624,8.088187 17.576476,7.8369346 17.597317,7.2454291 17.440903,6.8448732 17.026173,6.4276773 16.854635,6.2551204 16.771489,6.1919975 16.599215,6.1035395 15.903685,5.7464042 15.155519,5.8164079 14.543736,6.2958645 14.255733,6.521573 14.000522,6.915827 13.898557,7.292547 c -0.0579,0.2139247 -0.05768,0.7110831 4.1e-4,0.9217228 0.211719,0.7677074 0.862352,1.326914 1.624222,1.3959897 0.235655,0.021366 0.421572,0.00778 0.650056,-0.047501 z"
       id="path825"
       inkscape:connector-curvature="0"
       transform="translate(347.73333,569.98635)" />
  </g>
</svg>
